<svg xmlns="http://www.w3.org/2000/svg" version="1.1" xmlns:xlink="http://www.w3.org/1999/xlink" width="1300px" height="1300px"><svg version="1.1" id="SvgjsSvg1019" xmlns:sketch="http://www.bohemiancoding.com/sketch/ns" xmlns="http://www.w3.org/2000/svg" xmlns:xlink="http://www.w3.org/1999/xlink" x="0px" y="0px" width="1300px" height="1300px" viewBox="0 0 1300 1300" enable-background="new 0 0 1300 1300" xml:space="preserve">
<title>Vector 1</title>
<desc>Created with Sketch.</desc>
<g id="SvgjsG1018" sketch:type="MSPage">
	<g id="SvgjsG1017" transform="translate(402.000000, 118.000000)" sketch:type="MSLayerGroup">
		<g id="SvgjsG1016" sketch:type="MSShapeGroup">
			<path id="SvgjsPath1015" opacity="0.45" enable-background="new    " d="M371.772,135.308L241.068,367.61H-20.158l130.614-232.302
				H371.772"></path>
			<path id="SvgjsPath1014" opacity="0.6" enable-background="new    " d="M241.068,367.61h261.318L371.772,135.308H110.456
				L241.068,367.61z"></path>
			<path id="SvgjsPath1013" opacity="0.8" enable-background="new    " d="M110.456,599.822L241.068,367.61L110.456,135.308
				L-20.158,367.61L110.456,599.822z"></path>
			<path id="SvgjsPath1012" opacity="0.45" enable-background="new    " d="M111.721,948.275l130.704-232.303h261.318L373.038,948.275
				H111.721"></path>
			<path id="SvgjsPath1011" opacity="0.6" enable-background="new    " d="M242.424,715.973H-18.893l130.613,232.303h261.317
				L242.424,715.973z"></path>
			<path id="SvgjsPath1010" opacity="0.8" enable-background="new    " d="M373.038,483.761L242.424,715.973l130.614,232.303
				l130.704-232.303L373.038,483.761z"></path>
		</g>
	</g>
</g>
</svg><style>@media (prefers-color-scheme: light) { :root { filter: none; } }
@media (prefers-color-scheme: dark) { :root { filter: none; } }
</style></svg>